<?xml version="1.0" standalone="no"?>
<!DOCTYPE svg PUBLIC "-//W3C//DTD SVG 20010904//EN"
 "http://www.w3.org/TR/2001/REC-SVG-20010904/DTD/svg10.dtd">
<svg version="1.0" xmlns="http://www.w3.org/2000/svg"
 width="200.000000pt" height="200.000000pt" viewBox="0 0 200.000000 200.000000"
 preserveAspectRatio="xMidYMid meet">
<metadata>
Created by potrace 1.10, written by Peter Selinger 2001-2011
</metadata>
<g transform="translate(0.000000,200.000000) scale(0.100000,-0.100000)"
fill="#000000" stroke="none">
<path d="M910 1539 c-30 -5 -92 -27 -138 -50 -269 -132 -381 -445 -257 -717
61 -134 195 -250 340 -294 80 -25 211 -29 285 -9 76 21 173 74 224 123 48 46
50 54 32 98 -4 10 2 19 16 25 17 8 22 18 21 39 -2 21 7 40 30 65 43 48 63 96
48 115 -6 7 -8 27 -5 45 4 17 2 37 -4 43 -15 19 -17 80 -2 110 16 33 1 58 -36
58 -29 0 -38 14 -19 30 18 15 20 51 3 68 -18 18 -53 15 -71 -6 -22 -24 -21
-34 2 -64 19 -24 19 -25 -1 -56 -11 -18 -23 -32 -28 -32 -4 0 -24 18 -45 41
-35 39 -36 42 -19 60 23 25 3 54 -27 38 -17 -8 -19 -6 -19 19 0 28 -26 62 -46
62 -6 0 -20 13 -32 30 -18 24 -20 33 -11 53 16 35 0 57 -64 90 -56 28 -84 31
-177 16z m158 -46 c2 -8 -5 -13 -16 -13 -40 0 -140 -61 -196 -120 -169 -177
-164 -450 13 -612 56 -52 131 -102 117 -79 -5 7 1 11 16 11 16 0 19 3 10 9
-11 7 -11 9 2 14 9 4 23 4 31 1 8 -4 15 -2 15 4 0 14 -34 25 -38 13 -2 -6 -15
-11 -29 -11 -18 0 -24 -4 -19 -15 3 -8 1 -15 -4 -15 -6 0 -10 11 -10 23 0 27
-21 48 -67 66 -39 16 -68 46 -88 93 -23 56 -18 65 15 33 17 -16 30 -25 30 -21
0 5 6 3 13 -3 8 -6 17 -8 20 -4 4 3 7 2 7 -4 0 -21 -14 -22 -47 -2 -33 21 -41
17 -23 -11 7 -11 10 -12 10 -2 0 8 15 1 37 -17 20 -16 40 -28 44 -25 4 2 10
-4 14 -15 3 -11 13 -25 23 -33 12 -9 10 -3 -6 26 -17 28 -19 37 -8 33 9 -4 19
-1 22 5 5 8 10 5 16 -8 12 -27 1 27 -13 63 -8 21 -12 24 -19 13 -6 -10 -4 -20
6 -31 7 -8 14 -20 14 -25 0 -4 -7 2 -16 14 -8 12 -20 22 -26 22 -6 0 -1 -12
13 -27 l24 -28 -27 24 c-15 13 -25 28 -22 32 5 9 0 11 -28 13 -7 1 -24 14 -37
29 -19 22 -21 31 -11 37 10 6 7 11 -9 19 -28 15 -29 45 -1 36 11 -4 20 -2 20
4 0 6 -6 11 -13 11 -20 0 -51 37 -38 45 6 3 16 3 22 -1 8 -5 8 -9 -1 -14 -9
-5 -8 -9 2 -13 9 -3 14 2 15 14 1 10 -1 19 -5 19 -6 0 -9 83 -4 118 1 6 9 12
17 12 10 0 15 -10 14 -32 l-1 -33 -8 30 -9 30 2 -30 c2 -23 6 -29 20 -27 19 3
25 -32 7 -43 -5 -3 -7 0 -4 8 3 8 -1 14 -10 14 -8 0 -12 -5 -9 -10 3 -5 7 -19
8 -31 1 -11 3 -25 4 -29 1 -11 21 2 21 14 0 6 -4 7 -10 4 -5 -3 -10 -1 -10 4
0 6 7 11 15 11 8 0 15 -7 15 -16 0 -11 6 -13 19 -9 11 3 22 2 25 -4 3 -5 16
-7 29 -4 18 4 19 3 7 -7 -12 -9 -11 -10 9 -5 16 5 21 4 17 -4 -4 -6 -16 -11
-27 -11 -10 0 -19 -4 -19 -10 0 -5 9 -10 20 -10 11 0 20 5 20 11 0 5 5 7 10 4
6 -4 10 -3 9 2 -1 4 3 21 9 36 7 16 12 36 12 45 0 15 2 15 10 2 5 -8 10 -10
10 -5 0 6 -4 16 -9 24 -7 11 -11 8 -17 -10 l-8 -24 -7 25 c-5 17 -6 10 -4 -23
2 -34 -1 -45 -8 -38 -6 6 -18 11 -27 11 -8 0 -26 7 -39 16 -29 21 -14 41 18
25 14 -8 21 -8 21 -1 0 5 -5 10 -11 10 -5 0 -7 4 -4 10 8 13 -24 68 -43 75
-27 10 -24 -2 8 -39 18 -20 28 -36 22 -36 -14 0 -62 58 -62 75 0 51 73 -4 92
-70 l11 -40 7 30 c4 23 11 30 28 29 12 0 22 3 22 8 0 18 45 3 48 -15 5 -24 -9
-96 -15 -79 -3 6 -13 12 -24 12 -25 0 -25 -36 0 -50 25 -13 28 -13 28 3 0 20
34 67 44 61 17 -10 21 27 5 44 -19 22 -25 63 -9 69 6 2 14 -6 18 -18 10 -29
25 -6 25 39 0 65 43 127 64 93 9 -14 -12 -72 -40 -112 -18 -27 -23 -42 -17
-54 9 -15 11 -15 23 0 11 13 10 15 -6 9 -18 -5 -18 -5 0 10 13 10 23 13 29 7
6 -6 15 -4 24 5 17 16 43 19 43 4 0 -21 -39 -86 -69 -114 -35 -33 -38 -27 -17
32 l14 40 -29 -15 c-22 -11 -26 -18 -20 -31 18 -36 31 -86 20 -75 -6 6 -15 26
-19 45 l-8 33 -1 -31 c-1 -17 6 -37 14 -44 11 -9 12 -17 3 -34 -8 -16 -4 -15
22 9 22 20 31 24 27 13 -10 -29 6 -20 32 17 22 33 53 46 65 26 3 -5 17 -11 31
-13 13 -3 22 -2 19 3 -2 4 2 11 9 16 8 4 14 19 13 33 -1 15 4 24 12 22 7 -1
12 8 12 22 0 29 17 43 33 27 7 -7 7 -20 0 -44 -10 -32 -9 -33 13 -29 13 2 24
0 24 -6 0 -15 -24 -31 -50 -34 -17 -2 -23 2 -25 19 -1 13 -5 26 -10 30 -4 5
-5 0 -2 -9 3 -10 -1 -34 -9 -53 -12 -30 -13 -38 -1 -50 8 -7 20 -13 28 -12 8
1 16 -2 18 -8 4 -9 -4 -15 -49 -33 -25 -10 -24 -11 8 -11 25 -1 32 -5 32 -21
0 -18 2 -17 25 5 22 23 65 35 65 18 0 -13 -33 -43 -48 -43 -9 0 -7 7 9 21 23
19 23 20 2 10 -31 -15 -36 -28 -17 -39 21 -11 10 -32 -16 -32 -13 0 -18 -5
-13 -16 4 -10 -1 -17 -15 -21 -12 -3 -18 -11 -15 -19 3 -8 -5 -15 -24 -19 -15
-4 -34 -8 -41 -11 -9 -3 -11 6 -8 34 5 29 4 32 -3 12 -9 -25 -9 -25 -10 -2 -1
13 -7 30 -15 37 -11 12 -19 8 -50 -24 -20 -20 -33 -40 -30 -44 4 -4 22 10 40
31 32 36 33 36 33 12 1 -63 2 -65 10 -52 7 11 9 10 14 -2 4 -9 18 -16 34 -16
24 0 26 -2 12 -15 -8 -9 -31 -16 -51 -17 -27 -1 -33 -4 -25 -13 6 -7 20 -10
31 -7 32 8 13 -21 -23 -36 l-33 -13 6 27 c6 24 5 25 -9 11 -43 -43 2 -58 77
-25 89 38 70 -3 -35 -72 -161 -108 -388 -108 -553 -2 -170 110 -261 321 -221
513 23 112 61 183 142 265 77 78 147 117 249 139 73 17 158 15 164 -2z m60
-38 c0 -13 -7 -21 -18 -21 -11 0 -17 8 -17 21 0 13 6 21 17 21 11 0 18 -8 18
-21z m-48 -38 c22 -19 26 -27 17 -42 -8 -15 -5 -23 18 -42 26 -23 27 -27 17
-61 -14 -44 -46 -69 -68 -51 -12 9 -10 16 11 41 14 16 25 34 25 40 0 16 -31
48 -46 48 -21 0 -44 -41 -38 -67 4 -14 2 -23 -5 -23 -7 0 -24 -12 -38 -26 -18
-18 -24 -21 -18 -7 25 56 -6 103 -44 69 -12 -11 -21 -25 -21 -33 0 -20 -18
-16 -30 7 -13 24 -1 51 31 74 19 13 24 13 44 0 20 -13 25 -13 40 2 11 11 14
25 10 41 -5 20 0 26 27 38 42 18 36 19 68 -8z m68 -54 c-5 -25 -28 -28 -28 -4
0 12 6 21 16 21 9 0 14 -7 12 -17z m-81 -74 c-9 -15 -13 -16 -19 -5 -12 22 1
49 18 35 10 -8 11 -15 1 -30z m-119 -22 c2 -10 -3 -17 -12 -17 -10 0 -16 9
-16 21 0 24 23 21 28 -4z m-112 -29 c-9 -14 -12 -15 -18 -4 -5 8 -5 21 -2 30
4 12 9 12 19 3 9 -9 9 -16 1 -29z m597 16 c3 -17 -1 -21 -18 -21 -16 0 -22 5
-22 21 0 14 6 22 17 22 11 0 20 -9 23 -22z m-397 -44 c0 -11 -8 -17 -21 -17
-13 0 -21 6 -21 17 0 11 8 18 21 18 13 0 21 -7 21 -18z m365 -182 c1 -7 1 -16
0 -20 0 -4 7 -4 16 -1 11 4 14 3 9 -5 -7 -12 -38 -16 -48 -6 -8 8 3 44 13 44
5 0 10 -6 10 -12z m82 -21 c3 -8 1 -20 -4 -28 -8 -12 -10 -12 -18 0 -10 15 -4
41 9 41 4 0 10 -6 13 -13z"/>
<path d="M1183 1295 c-13 -24 -27 -85 -19 -85 12 0 37 62 34 83 -3 22 -4 22
-15 2z"/>
<path d="M1211 1129 c-13 -22 -21 -43 -18 -45 6 -7 57 59 57 74 0 24 -17 11
-39 -29z"/>
<path d="M1099 1063 c-7 -36 -6 -80 2 -90 13 -15 16 -68 7 -108 -4 -16 -5 -24
-2 -17 3 6 9 10 14 7 4 -3 6 5 3 17 -3 13 -2 20 2 16 10 -9 35 10 35 26 0 6
-8 2 -17 -9 -14 -18 -15 -18 -9 -2 3 10 6 21 6 23 0 2 7 4 15 4 20 0 19 -29
-2 -52 -15 -17 -15 -18 0 -18 10 0 17 -7 17 -15 0 -8 -4 -15 -10 -15 -5 0 -10
-20 -10 -45 0 -34 -3 -43 -14 -39 -16 6 -36 -24 -29 -44 3 -6 10 -9 16 -5 7 4
6 0 -1 -10 -10 -12 -11 -24 -5 -44 l10 -28 7 38 c4 20 5 41 2 46 -3 4 1 17 9
27 12 17 13 14 11 -29 -2 -26 -6 -50 -9 -54 -16 -16 -4 -24 30 -21 27 2 39 8
41 21 2 12 -3 17 -17 17 -13 0 -21 -6 -21 -17 0 -28 -9 -9 -14 30 -3 20 -1 39
4 42 6 4 10 13 10 21 0 9 -5 12 -12 8 -8 -5 -9 0 -4 17 5 13 10 59 12 103 3
43 9 87 14 97 6 10 10 21 10 24 0 10 -52 -24 -67 -43 -10 -12 -12 -5 -8 39 3
41 2 47 -4 24 -8 -29 -9 -29 -11 -5 -2 14 -2 35 -1 48 2 20 -7 32 -10 15z"/>
<path d="M865 1034 c-4 -10 -7 -22 -7 -26 1 -5 -2 -8 -8 -8 -5 0 -10 -7 -10
-15 0 -18 5 -19 32 -4 20 11 20 12 4 24 -9 7 -13 16 -8 19 5 3 15 -1 22 -9 14
-17 40 -9 40 12 0 11 -7 14 -25 11 -13 -3 -26 0 -28 5 -2 6 -7 2 -12 -9z"/>
<path d="M1230 994 c0 -9 7 -14 17 -12 25 5 28 28 4 28 -12 0 -21 -6 -21 -16z"/>
<path d="M1285 1000 c-9 -15 4 -30 26 -30 25 0 25 16 0 30 -13 7 -22 7 -26 0z"/>
<path d="M1051 973 c1 -16 -2 -37 -6 -48 -6 -16 -5 -18 5 -8 7 7 13 26 12 44
-2 64 9 19 13 -55 3 -66 2 -76 -13 -76 -13 0 -14 2 -3 9 9 6 10 11 2 15 -6 4
-8 12 -5 18 4 7 0 7 -12 0 -11 -5 -25 -7 -31 -5 -9 3 -13 -5 -12 -24 1 -21 3
-23 7 -8 5 20 5 20 13 0 7 -19 8 -19 8 3 1 13 5 21 11 17 6 -4 6 -15 -1 -32
-12 -32 8 -94 22 -71 13 19 11 36 -2 18 -8 -11 -9 -9 -3 10 3 14 12 32 20 40
16 19 32 106 17 97 -7 -4 -10 5 -8 26 3 40 -3 57 -21 57 -9 0 -14 -10 -13 -27z"/>
<path d="M956 981 c-7 -10 22 -37 30 -28 9 8 -3 37 -15 37 -5 0 -12 -4 -15 -9z"/>
<path d="M1024 975 c-4 -8 -10 -12 -15 -9 -5 3 -4 -7 1 -21 13 -34 12 -44 -1
-25 -9 12 -10 12 -5 -3 3 -10 6 -24 6 -30 1 -24 18 19 24 61 6 41 1 56 -10 27z"/>
<path d="M1210 933 c0 -52 15 -49 26 3 4 23 2 33 -10 37 -13 5 -16 -2 -16 -40z"/>
<path d="M1264 968 c-4 -7 -9 -20 -9 -30 -1 -13 2 -15 16 -7 26 14 31 25 15
38 -11 9 -16 9 -22 -1z"/>
<path d="M860 955 c-14 -16 -5 -35 16 -35 15 0 20 35 5 44 -5 3 -14 -1 -21 -9z"/>
<path d="M917 959 c-17 -10 -24 -39 -9 -39 4 1 17 6 30 14 19 10 21 15 10 23
-9 8 -19 8 -31 2z"/>
<path d="M1310 940 c0 -11 7 -20 15 -20 8 0 15 9 15 20 0 11 -7 20 -15 20 -8
0 -15 -9 -15 -20z"/>
<path d="M978 939 c-13 -7 -16 -18 -11 -42 3 -18 10 -39 15 -47 6 -10 7 -6 3
13 -3 16 -2 26 2 24 4 -3 8 10 8 29 0 19 0 34 0 34 0 0 -8 -5 -17 -11z"/>
<path d="M1264 912 c-31 -14 -80 -83 -67 -95 3 -4 0 -14 -8 -24 -13 -15 -12
-15 13 1 15 10 35 29 45 44 17 27 19 31 22 53 0 5 6 7 13 3 7 -4 8 -3 4 4 -4
7 -2 12 3 12 6 0 11 -9 11 -19 0 -11 5 -23 11 -27 8 -4 7 -9 -2 -15 -11 -7
-10 -9 4 -9 12 0 17 -8 17 -27 0 -26 1 -26 15 -7 8 10 14 26 14 34 0 10 -3 8
-9 -5 -5 -11 -9 -15 -10 -10 -1 6 -3 18 -5 27 -6 30 23 28 39 -2 9 -19 11 -30
4 -30 -6 0 -9 -3 -5 -6 12 -12 37 5 31 21 -3 8 -10 12 -15 9 -5 -3 -9 6 -9 20
0 20 -5 26 -23 26 -13 0 -29 -6 -36 -12 -11 -10 -13 -10 -7 -1 4 7 1 21 -6 32
-12 17 -15 17 -44 3z"/>
<path d="M830 831 c0 -5 12 -18 28 -29 51 -35 57 -35 23 1 -35 37 -51 46 -51
28z"/>
<path d="M1074 798 c-4 -6 -2 -14 4 -16 6 -2 8 -11 5 -20 -4 -15 -3 -15 6 -2
13 19 14 50 2 50 -6 0 -13 -5 -17 -12z"/>
<path d="M964 774 c3 -9 6 -18 6 -20 0 -2 5 -4 11 -4 5 0 7 5 3 12 -5 7 -3 8
6 3 10 -6 10 -11 -3 -20 -17 -12 -13 -25 6 -25 6 0 7 3 4 7 -4 3 -2 12 4 20 9
10 8 17 -1 28 -17 20 -44 20 -36 -1z"/>
<path d="M1247 743 c-4 -3 -7 -11 -7 -16 0 -6 3 -7 6 -4 4 3 15 2 25 -3 11 -6
20 -7 24 -1 3 6 -3 15 -14 20 -23 13 -26 13 -34 4z"/>
<path d="M1077 733 c-9 -14 13 -103 26 -103 5 0 6 8 2 18 -5 9 -11 35 -14 57
-4 23 -9 35 -14 28z"/>
<path d="M1220 720 c0 -5 -6 -7 -13 -4 -8 3 -19 -1 -26 -9 -9 -11 -8 -17 3
-26 10 -8 16 -9 21 -1 3 6 9 8 13 6 4 -2 8 7 8 20 1 13 0 24 -2 24 -2 0 -4 -4
-4 -10z"/>
<path d="M1036 683 c-15 -15 -4 -41 19 -45 19 -4 25 -1 25 13 0 19 -33 43 -44
32z"/>
<path d="M1279 1407 c-37 -30 -40 -43 -18 -71 26 -33 54 -33 76 0 18 29 12 47
-23 71 -16 10 -23 10 -35 0z m38 -33 c14 -14 14 -16 -3 -28 -15 -11 -20 -11
-31 0 -12 11 -12 16 -1 28 16 19 16 19 35 0z"/>
</g>
</svg>
